<svg xmlns="http://www.w3.org/2000/svg" height="800" width="1200" version="1.0" viewBox="-30.36819 -11.33405 263.19098 68.0043"><defs><linearGradient spreadMethod="pad" gradientTransform="matrix(-10.47237 -5.69449 -5.6532 10.54883 427.0174 51.293)" gradientUnits="userSpaceOnUse" id="b" y2="0" x2="1" y1="0" x1="0"><stop offset="0" stop-color="#f79210"/><stop offset=".5" stop-color="#f35c19"/><stop offset="1" stop-color="#f79210"/></linearGradient><linearGradient spreadMethod="pad" gradientTransform="matrix(-15.37584 4.54877 4.5158 15.48811 429.4694 46.1696)" gradientUnits="userSpaceOnUse" id="c" y2="0" x2="1" y1="0" x1="0"><stop offset="0" stop-color="#f79210"/><stop offset=".5" stop-color="#f35c19"/><stop offset="1" stop-color="#f79210"/></linearGradient><linearGradient spreadMethod="pad" gradientTransform="matrix(-15.07325 15.18334 15.07325 15.18334 429.3187 40.8553)" gradientUnits="userSpaceOnUse" id="d" y2="0" x2="1" y1="0" x1="0"><stop offset="0" stop-color="#f79210"/><stop offset=".5" stop-color="#f35c19"/><stop offset="1" stop-color="#f79210"/></linearGradient><linearGradient spreadMethod="pad" gradientTransform="matrix(-11.13573 26.0048 25.81628 11.21703 427.3486 35.4398)" gradientUnits="userSpaceOnUse" id="e" y2="0" x2="1" y1="0" x1="0"><stop offset="0" stop-color="#f79210"/><stop offset=".5" stop-color="#f35c19"/><stop offset="1" stop-color="#f79210"/></linearGradient><linearGradient spreadMethod="pad" gradientTransform="matrix(0 36.27132 36.00838 0 421.7798 30.3082)" gradientUnits="userSpaceOnUse" id="f" y2="0" x2="1" y1="0" x1="0"><stop offset="0" stop-color="#f79210"/><stop offset=".5" stop-color="#f35c19"/><stop offset="1" stop-color="#f79210"/></linearGradient><clipPath id="a"><path d="M392.314 16.466h179.453v69.345H392.314z"/></clipPath></defs><g clip-path="url(#a)" transform="matrix(1.25 0 0 -1.25 -503.275 83.2237)"><path d="M544.9659 46.6542c0-.9511.035-.9763.8887-.9763h2.8522c.121 0 .224-.1023.224-.2267v-.7244c0-.1602-.057-.2172-.224-.2388-.362-.0575-1.0948-.1587-2.434-.1587-1.8725 0-2.8623-.0131-2.8623 2.3249v3.5893c0 2.3375.9898 2.324 2.8622 2.324 1.3393 0 2.072-.1023 2.4341-.1578.167-.0216.224-.0796.224-.2392v-.7245c0-.1239-.103-.2277-.224-.2277h-2.8522c-.8537 0-.8887-.0257-.8887-.9748v-1.0402h3.6044c.125 0 .2235-.1033.2235-.2262v-.8192c0-.1234-.0985-.2257-.2235-.2257h-3.6044zm16.6556-2.3304c-.9958 0-2.0045.1727-2.5457.2982-.1115.0227-.214.1007-.214.2257v.817c0 .124.1025.2162.214.2162h.0225c.4511-.057 1.505-.205 2.5462-.205 1.0012 0 1.3083.3612 1.3083 1.019 0 .851-2.0165 1.3215-3.0008 1.7305-.9797.4076-1.3268 1.19-1.3268 1.9829 0 1.2488.9973 2.1556 3.0918 2.1556 1.0732 0 2.056-.2055 2.439-.2977.1131-.0222.2021-.1018.2021-.2146v-.8398c0-.1124-.077-.204-.1915-.204h-.0215c-.7442.0675-1.5149.206-2.4936.206-.8352 0-1.4594-.2952-1.4594-.8055 0-.3733.4231-.7164.9232-.9164.5002-.1985 1.1553-.4559 1.9045-.7592.9487-.3869 1.5639-.9496 1.5639-2.0377 0-1.145-.7092-2.3712-2.9622-2.3712m-5.988 5.6804c0 .851-.6557 1.2141-1.784 1.2141-.235 0-1.2598-.0226-1.4628-.0453v-2.46c.1825-.0115 1.2748-.0342 1.4629-.0342 1.1627 0 1.7839.2252 1.7839 1.2227zm1.69-5.5852h-1.3754c-.124 0-.168.1153-.2236.2272l-1.6239 2.751h-.251c-.2911 0-1.2023.0323-1.4629.0454v-2.7964c0-.124-.089-.2272-.212-.2272h-1.1253c-.124 0-.2256.1032-.2256.2272v7.4346c0 .2277.1336.3073.3591.34.5851.0907 1.8465.1466 2.6667.1466 1.7359 0 3.3368-.6241 3.3368-2.5632v-.1027c0-1.2005-.5977-1.8584-1.5209-2.2196l1.77-3.0357c.0224-.0343.0224-.0665.0224-.0917 0-.0776-.0455-.1355-.1345-.1355m-15.2947 6.7434h-2.2466v-6.5162c0-.124-.1035-.2272-.228-.2272h-1.1143c-.124 0-.2256.1032-.2256.2272v6.5162h-2.2485c-.122 0-.224.0781-.224.2035v.8962c0 .126.102.2157.224.2157h6.063c.122 0 .2235-.0897.2235-.2157v-.8962c0-.1254-.1015-.2035-.2235-.2035m-10.7812-6.8331c-1.8119 0-3.3728.794-3.3728 3.2115v4.7213c0 .126.1025.2157.2266.2157h1.1127c.125 0 .2256-.0897.2256-.2157v-4.7213c0-1.2942.5936-1.9073 1.808-1.9073 1.2172 0 1.8099.6131 1.8099 1.9073v4.7213c0 .126.1005.2157.2245.2157h1.1148c.125 0 .2266-.0897.2266-.2157v-4.7213c0-2.4176-1.562-3.2115-3.3759-3.2115m-9.0217 2.3249c0-.9511.036-.9763.8878-.9763h2.8516a.227.227 0 00.2256-.2267v-.7244c0-.1602-.057-.2172-.2256-.2388-.3605-.0575-1.0942-.1587-2.4335-.1587-1.8695 0-2.8607-.0131-2.8607 2.3249v3.5893c0 2.3375.9912 2.324 2.8607 2.324 1.3393 0 2.073-.1023 2.4335-.1578.1686-.0216.2256-.0796.2256-.2392v-.7245c0-.1239-.1015-.2277-.2256-.2277h-2.8516c-.8518 0-.8878-.0257-.8878-.9748v-1.0402h3.6044c.124 0 .2256-.1033.2256-.2262v-.8192a.2268.2268 0 00-.2256-.2257h-3.6044zm-4.8271 3.35c0 .851-.6557 1.2141-1.782 1.2141-.237 0-1.2618-.0226-1.4633-.0453v-2.46c.179-.0115 1.2698-.0342 1.4633-.0342 1.1588 0 1.782.2252 1.782 1.2227zm1.6899-5.5852h-1.3754c-.123 0-.169.1153-.225.2272l-1.6224 2.751h-.249c-.2941 0-1.2044.0323-1.4634.0454v-2.7964c0-.124-.0906-.2272-.2146-.2272h-1.1263c-.123 0-.2245.1032-.2245.2272v7.4346c0 .2277.1335.3073.36.34.5862.0907 1.8455.1466 2.6687.1466 1.734 0 3.3358-.6241 3.3358-2.5632v-.1027c0-1.2005-.5966-1.8584-1.5198-2.2196l1.7669-3.0357c.0235-.0343.0235-.0665.0235-.0917 0-.0776-.045-.1355-.1345-.1355m-21.8824 4.61c0 1.4972-.8987 2.1667-2.0025 2.1667-1.1037 0-2.0024-.6695-2.0024-2.1667v-1.1607c0-1.4977.8987-2.1662 2.0024-2.1662 1.1038 0 2.0025.6685 2.0025 2.1662zm-2.0025-4.6997c-1.858 0-3.5783 1.0433-3.5783 3.539v1.1607c0 2.4951 1.7204 3.5384 3.5783 3.5384 1.858 0 3.578-1.0433 3.578-3.5384v-1.1607c0-2.4957-1.72-3.539-3.578-3.539m-7.9609-.0055c-.9942 0-2.0045.1727-2.5456.2982-.1126.0227-.214.1007-.214.2257v.817c0 .124.1014.2162.214.2162h.0225c.45-.057 1.5043-.205 2.5456-.205 1.0032 0 1.3068.3612 1.3068 1.019 0 .851-2.013 1.3215-2.9967 1.7305-.9818.4076-1.3283 1.19-1.3283 1.9829 0 1.2488.9982 2.1556 3.0922 2.1556 1.0738 0 2.0565-.2055 2.4381-.2977.1135-.0222.202-.1018.202-.2146v-.8398c0-.1124-.078-.204-.19-.204h-.0225c-.7447.0675-1.5154.206-2.4961.206-.8312 0-1.4584-.2952-1.4584-.8055 0-.3733.4242-.7174.9223-.9164.5-.1985 1.1578-.4559 1.906-.7592.9512-.3869 1.5658-.9496 1.5658-2.0377 0-1.145-.7092-2.3712-2.9637-2.3712m19.7158.0952h-1.1393c-.2705 0-.5076 0-.6846.408l-3.0553 5.1546c-.0325.0675-.0675.0922-.1005.0922-.0325 0-.057-.0247-.057-.0922v-5.3354c0-.124-.0905-.2272-.2146-.2272h-.9552c-.126 0-.225.1032-.225.2272v7.3782c0 .2498.2005.4534.4485.4534h1.2168c.2366 0 .3596-.068.4967-.3648l3.1762-5.4588c.0215-.0554.055-.0912.09-.0912.0226 0 .0546.0358.0546.1028v5.5963c0 .126.09.2157.215.2157h.9688c.124 0 .215-.0897.215-.2157v-7.3887c0-.2504-.203-.4544-.45-.4544m-24.7391 0h-1.1378c-.1005 0-.1786.1153-.1786.2272v4.9052c0 .079-.012.1128-.0365.1128-.0085 0-.0315-.0337-.0555-.0675l-1.8184-4.0563c-.0665-.1235-.212-.1935-.3581-.1935h-.5856c-.1466 0-.2931.07-.3591.1935l-1.8305 4.0563c-.0235.0338-.047.0675-.0565.0675-.0225 0-.0345-.0337-.0345-.1128v-4.9052c0-.1119-.079-.2272-.1805-.2272h-1.1363c-.102 0-.193.0579-.193.1702v7.4352c0 .2498.2035.4534.451.4534h.9238c.179 0 .3375-.1129.4166-.272l2.161-4.4317c.0555-.1018.079-.1587.126-.1587.044 0 .0665.0569.1236.1587l2.1595 4.4316c.079.1592.238.272.417.272h.9243c.2476 0 .4501-.2035.4501-.4533v-7.4352c0-.1123-.0905-.1702-.192-.1702m-11.2818 4.61c0 1.4972-.8977 2.1667-2.002 2.1667-1.1032 0-2.002-.6695-2.002-2.1667v-1.1607c0-1.4977.8988-2.1662 2.002-2.1662 1.1043 0 2.002.6685 2.002 2.1662zm-2.002-4.6997c-1.858 0-3.5778 1.0433-3.5778 3.539v1.1607c0 2.4951 1.7199 3.5384 3.5778 3.5384 1.859 0 3.5799-1.0433 3.5799-3.5384v-1.1607c0-2.4957-1.721-3.539-3.5799-3.539m-5.5813.0897h-1.1138a.2285.2285 0 00-.2276.2272v3.286h-3.5673v-3.286c0-.124-.101-.2272-.223-.2272h-1.1159c-.125 0-.226.1032-.226.2272v7.616c0 .1259.101.2156.226.2156h1.1158c.122 0 .223-.0897.223-.2157v-2.946h3.5674v2.946c0 .126.102.2157.2276.2157h1.1138c.1225 0 .2245-.0897.2245-.2157v-7.616c0-.1239-.102-.2271-.2245-.2271m-8.126 6.7434h-2.247v-6.5162a.2276.2276 0 00-.2266-.2272h-1.1128c-.124 0-.225.1032-.225.2272v6.5162h-2.2496c-.1235 0-.2256.0781-.2256.2035v.8962c0 .126.102.2157.2256.2157h6.061c.124 0 .2255-.0897.2255-.2157v-.8962c0-.1254-.1015-.2035-.2255-.2035" fill="#827f80"/></g><path d="M420.463 54.569c-.322-.175-.437-.583-.267-.904.171-.329.578-.446.9-.274.322.178.44.582.268.909-.118.222-.348.35-.585.35a.655.655 0 01-.316-.081m1.783-.028c-.288-.154-.39-.513-.239-.803.152-.288.509-.396.794-.238.292.157.394.515.242.804a.5816.5816 0 01-.515.312.5812.5812 0 01-.282-.075m-3.475-.478c-.364-.199-.502-.659-.302-1.024.198-.367.652-.51 1.021-.31.365.199.498.659.302 1.024a.7503.7503 0 01-.664.402c-.12 0-.243-.03-.357-.092m5.186-.084c-.252-.141-.349-.46-.214-.71.135-.252.455-.345.698-.207.256.137.348.452.21.703-.091.176-.271.275-.456.275a.496.496 0 01-.238-.061m-6.528-1.06c-.327-.18-.447-.579-.271-.91.176-.322.572-.443.895-.268.328.175.447.583.273.904a.6656.6656 0 01-.586.355.6335.6335 0 01-.311-.081m8-.008c-.219-.121-.298-.39-.184-.605.116-.215.383-.294.604-.183.213.122.297.391.18.608-.082.149-.235.235-.391.235a.4298.4298 0 01-.209-.055m1.088-1.46c-.172-.101-.243-.332-.144-.508.096-.181.321-.246.495-.15.181.097.248.319.15.5a.3713.3713 0 01-.33.199.3772.3772 0 01-.171-.041m-10.046-.047c-.286-.157-.392-.519-.242-.806.158-.286.515-.397.8-.239.287.153.397.515.242.805a.5985.5985 0 01-.522.31.594.594 0 01-.278-.07m10.6-1.551c-.219-.115-.301-.39-.182-.606.112-.216.386-.296.593-.185.218.127.301.398.187.612a.4446.4446 0 01-.39.233.4302.4302 0 01-.208-.054m-11.068-.204c-.248-.134-.34-.45-.207-.7.138-.255.449-.348.701-.212.249.137.344.457.209.705a.512.512 0 01-.452.273.5204.5204 0 01-.251-.066m11.07-1.49c-.252-.14-.341-.452-.211-.709.133-.248.455-.339.703-.206.251.137.341.453.205.704a.5063.5063 0 01-.451.273c-.083 0-.166-.021-.246-.062m-10.996-.33c-.212-.119-.292-.392-.176-.607.118-.219.387-.295.598-.175.215.11.302.387.18.602-.083.147-.234.233-.392.233-.07 0-.142-.017-.21-.053m10.461-1.289c-.289-.153-.393-.521-.241-.809.157-.286.514-.394.795-.24.294.16.395.517.246.808a.5946.5946 0 01-.521.312.576.576 0 01-.279-.071m-9.843-.437c-.18-.095-.245-.321-.148-.507.096-.177.318-.246.501-.151.178.102.245.327.147.507a.3733.3733 0 01-.328.195.358.358 0 01-.172-.044m8.816-.948c-.324-.177-.442-.583-.268-.906.17-.325.574-.446.899-.267.322.168.441.581.266.903-.122.222-.35.352-.585.352a.636.636 0 01-.312-.082m-7.79-.385c-.216-.114-.296-.388-.18-.603a.4331.4331 0 01.597-.177c.214.112.295.383.18.6-.078.148-.231.231-.389.231a.441.441 0 01-.208-.051m6.355-.606a.7512.7512 0 01-.302-1.024c.198-.367.654-.502 1.021-.308.363.202.498.664.303 1.023-.136.256-.395.403-.663.403-.121 0-.244-.03-.359-.094m-4.951-.329c-.256-.139-.347-.45-.209-.702.13-.254.445-.351.695-.215.252.143.346.46.211.71a.5243.5243 0 01-.455.27.4809.4809 0 01-.242-.063m3.345-.332c-.324-.173-.437-.577-.26-.906.168-.322.569-.45.893-.267.325.171.441.578.269.902a.6671.6671 0 01-.586.351.668.668 0 01-.316-.08m-1.712-.104c-.287-.156-.389-.519-.237-.805.157-.29.514-.398.801-.243.29.152.395.516.24.808-.105.198-.31.308-.522.308a.6043.6043 0 01-.282-.068" fill="url(#b)" transform="matrix(1.25 0 0 -1.25 -503.275 83.2237)"/><path d="M420.756 56.394a.8483.8483 0 01.569-1.054c.447-.133.914.128 1.046.573.134.45-.122.925-.567 1.055a.8162.8162 0 01-.242.036c-.366 0-.697-.241-.806-.61m2.257-.274c-.149-.52.135-1.058.656-1.212.513-.153 1.05.141 1.199.655.156.522-.138 1.066-.654 1.219a.988.988 0 01-.272.039c-.42 0-.807-.277-.929-.701m-4.523-.198c-.116-.401.113-.819.51-.937a.745.745 0 01.93.511c.113.398-.115.818-.508.936-.07.02-.14.03-.209.03a.7572.7572 0 01-.723-.54m6.808-.874c-.133-.449.125-.92.571-1.053.447-.133.915.129 1.046.577.133.449-.122.921-.569 1.054a.8101.8101 0 01-.237.035c-.366 0-.701-.244-.811-.613m-8.756-.33c-.092-.317.084-.644.399-.738.312-.092.64.09.733.403.091.314-.089.644-.402.738a.5619.5619 0 01-.166.025c-.256 0-.49-.169-.564-.428m10.586-1.351c-.119-.405.111-.82.506-.938.399-.117.812.115.931.514.119.396-.108.816-.508.932a.7335.7335 0 01-.211.031c-.321 0-.619-.213-.718-.539m-12.127-.433c-.076-.252.072-.521.324-.594.253-.075.515.07.592.324.078.252-.071.52-.322.598a.487.487 0 01-.131.018.4802.4802 0 01-.463-.346m13.428-1.73c-.097-.321.089-.649.399-.741.315-.093.641.087.733.403.092.316-.086.645-.398.736a.5816.5816 0 01-.169.025c-.256 0-.492-.168-.565-.423m-14.335-.485c-.055-.192.049-.394.239-.449.191-.056.388.055.444.245.055.19-.052.389-.243.447a.3889.3889 0 01-.1.014.354.354 0 01-.34-.257m14.887-1.921c-.076-.253.068-.524.324-.597.254-.076.518.071.593.327.073.251-.069.52-.324.597a.5073.5073 0 01-.132.019c-.209 0-.403-.136-.461-.346m-15.315-.438c-.076-.253.073-.519.325-.595.252-.076.517.067.592.324a.4808.4808 0 01-.322.598.4304.4304 0 01-.132.019c-.207 0-.398-.138-.463-.346m15.121-1.991c-.052-.189.053-.392.24-.445.192-.056.388.052.442.244.058.189-.05.391-.24.447a.3596.3596 0 01-.097.013.3624.3624 0 01-.345-.259m-14.78-.351c-.088-.314.081-.646.399-.738.309-.095.639.089.731.406.091.314-.089.644-.399.731a.5828.5828 0 01-.174.026.5768.5768 0 01-.557-.425m13.641-1.794c-.074-.256.071-.524.32-.596.257-.076.523.071.597.324.073.252-.071.523-.324.599a.4788.4788 0 01-.593-.327m-12.649-.279a.7536.7536 0 01.506-.937c.401-.119.813.111.933.511.117.399-.114.821-.511.94a.7335.7335 0 01-.211.031c-.323 0-.619-.215-.717-.545m10.892-1.442c-.09-.313.092-.644.402-.738.311-.093.638.089.729.4.095.318-.084.648-.396.74a.585.585 0 01-.168.025c-.256 0-.491-.17-.567-.427m-9.24-.192c-.13-.445.121-.917.57-1.051.448-.13.914.128 1.048.576.128.446-.126.922-.575 1.053-.08.024-.16.035-.238.035-.365 0-.698-.24-.805-.613m2.044-.992c-.148-.523.14-1.06.657-1.214.513-.149 1.055.148 1.201.661.151.518-.14 1.061-.657 1.214a.9583.9583 0 01-.273.039c-.42 0-.806-.274-.928-.7m4.939.072c-.116-.401.115-.821.509-.937.4-.118.814.11.931.512.117.396-.108.817-.507.934a.7213.7213 0 01-.214.032.7512.7512 0 01-.719-.541m-2.443-.423c-.13-.446.127-.914.573-1.049.448-.135.917.124 1.044.571.13.451-.121.923-.568 1.055a.8766.8766 0 01-.24.035c-.365 0-.7-.24-.809-.612" fill="url(#c)" transform="matrix(1.25 0 0 -1.25 -503.275 83.2237)"/><path d="M422.375 59.307c-.362-.388-.345-1.001.043-1.368.386-.367.995-.349 1.356.04.364.391.344 1.001-.041 1.369a.9522.9522 0 01-.656.262.964.964 0 01-.702-.303m-3.042-.237a.767.767 0 01.034-1.079c.301-.287.781-.271 1.069.034.283.305.27.79-.033 1.077a.7505.7505 0 01-.519.206c-.201 0-.402-.08-.551-.238m6.023-.579c-.409-.437-.391-1.124.043-1.539.434-.413 1.123-.391 1.529.044.408.438.39 1.129-.044 1.539-.211.2-.478.299-.743.299-.287 0-.572-.116-.785-.343m-8.926-.604c-.231-.248-.22-.635.025-.872.249-.232.635-.221.867.027.232.247.219.637-.025.87a.6132.6132 0 01-.422.169.6123.6123 0 01-.445-.194m11.448-1.1c-.473-.501-.454-1.291.049-1.767.499-.477 1.287-.451 1.755.047.473.51.45 1.301-.049 1.776-.24.228-.546.339-.85.339-.332 0-.661-.132-.905-.395m-13.859-.977a.4598.4598 0 01.018-.65c.186-.177.474-.166.644.018.174.185.166.476-.017.651a.4643.4643 0 01-.316.124c-.12 0-.24-.048-.329-.143m15.93-1.679c-.41-.436-.391-1.126.046-1.539.435-.414 1.119-.388 1.526.047.411.438.392 1.123-.047 1.54-.206.197-.47.295-.736.295-.288 0-.576-.115-.789-.343m-17.844-.869c-.234-.248-.221-.636.028-.872.243-.232.63-.222.864.023.229.249.22.638-.027.872a.6044.6044 0 01-.419.169.6146.6146 0 01-.446-.192m19.007-2.242c-.366-.389-.347-1.002.041-1.367.385-.37.995-.347 1.357.041.367.387.347 1-.04 1.368a.9618.9618 0 01-.66.262c-.255 0-.51-.101-.698-.304m-20.005-.75c-.281-.309-.274-.786.033-1.075.301-.29.783-.274 1.069.029.287.305.27.792-.031 1.079a.7556.7556 0 01-.521.208.7474.7474 0 01-.55-.241m20.246-2.607c-.285-.306-.268-.788.034-1.075a.7506.7506 0 011.07.032c.285.305.275.786-.034 1.076a.7474.7474 0 01-.518.206.755.755 0 01-.552-.239m-20.301-.465c-.362-.387-.344-1.003.042-1.369a.9544.9544 0 011.358.04c.364.387.346 1.001-.041 1.371a.9426.9426 0 01-.656.263.9645.9645 0 01-.703-.305m19.515-2.723c-.232-.247-.221-.639.025-.875a.612.612 0 01.869.03c.23.247.221.638-.026.873a.6115.6115 0 01-.421.167.6138.6138 0 01-.447-.195m-18.523-.226c-.409-.434-.396-1.124.041-1.539.437-.41 1.123-.388 1.529.047.408.436.389 1.129-.044 1.538-.209.2-.474.297-.737.297-.288 0-.576-.117-.789-.343m1.835-2.429c-.469-.509-.447-1.293.054-1.772.499-.474 1.286-.452 1.755.053.472.504.448 1.294-.052 1.771a1.244 1.244 0 01-.853.342c-.33 0-.66-.133-.904-.394m15.001-.11c-.172-.186-.163-.477.02-.651.185-.172.472-.166.644.023.174.183.167.475-.02.647a.4447.4447 0 01-.311.126.4518.4518 0 01-.333-.145m-12.245-1.821c-.407-.431-.388-1.121.049-1.535.434-.415 1.119-.392 1.525.044.408.441.393 1.127-.046 1.54-.207.197-.474.295-.739.295h-.004c-.287 0-.573-.116-.785-.344m9.607-.041c-.233-.248-.222-.639.024-.872.249-.234.637-.222.867.026.232.246.221.636-.026.871a.6055.6055 0 01-.421.169.6047.6047 0 01-.444-.194m-6.455-.937c-.364-.387-.346-1.004.041-1.366.391-.37.995-.352 1.358.038.365.387.35 1.002-.038 1.367a.9462.9462 0 01-.659.264.9608.9608 0 01-.702-.303m3.341-.048c-.285-.302-.27-.788.033-1.076.305-.289.784-.271 1.07.035.286.302.275.786-.031 1.075a.7516.7516 0 01-.519.207.7555.7555 0 01-.553-.241" fill="url(#d)" transform="matrix(1.25 0 0 -1.25 -503.275 83.2237)"/><path d="M423.181 62.726c-.451-.09-.743-.527-.653-.984.09-.452.529-.746.979-.655.45.091.741.531.651.983-.08.401-.425.673-.812.673a.856.856 0 01-.165-.017m-3.444-.227c-.353-.053-.6-.383-.548-.742.053-.358.383-.603.737-.552.355.053.602.383.549.742a.6486.6486 0 01-.642.559.7892.7892 0 01-.096-.007m6.763-.479c-.538-.138-.865-.688-.726-1.233.137-.542.687-.872 1.225-.731.537.138.863.691.725 1.232-.117.461-.526.764-.974.764a.98.98 0 01-.25-.032m-10.286-.574c-.306-.133-.449-.49-.316-.801.131-.308.489-.449.795-.317.306.134.449.492.317.8a.6043.6043 0 01-.555.368.602.602 0 01-.241-.05m13.227-.926c-.659-.207-1.032-.915-.824-1.583.206-.666.912-1.038 1.571-.83.663.209 1.031.918.825 1.583-.169.542-.663.888-1.195.888-.126 0-.252-.019-.377-.058m-16.407-.933a.658.658 0 01-.107-.918c.223-.284.632-.331.912-.108.282.225.331.635.108.92a.6442.6442 0 01-.508.248.6555.6555 0 01-.405-.142m18.824-1.429c-.717-.267-1.086-1.065-.818-1.79.265-.724 1.062-1.092 1.776-.825.717.266 1.085 1.07.819 1.792-.208.566-.736.91-1.296.91-.16 0-.323-.028-.481-.087m-21.35-.937a.8378.8378 0 01-.198-1.167c.266-.376.784-.465 1.157-.198.375.268.464.79.198 1.166a.824.824 0 01-.676.354.82.82 0 01-.481-.155m23.031-2.018c-.765-.333-1.118-1.219-.788-1.992.33-.77 1.215-1.125 1.979-.794.763.332 1.117 1.226.786 1.994-.245.575-.799.916-1.38.916-.2 0-.403-.039-.597-.124m-24.8-.897c-.468-.301-.611-.923-.311-1.399.297-.473.919-.614 1.388-.315.472.298.61.927.312 1.401-.192.305-.516.471-.849.471-.185 0-.372-.052-.54-.158m25.742-2.65c-.683-.341-.964-1.178-.626-1.865.342-.696 1.17-.973 1.855-.632.684.34.966 1.174.625 1.866-.241.491-.732.775-1.242.775a1.37 1.37 0 01-.612-.144m-26.678-.537c-.605-.341-.82-1.11-.479-1.72.339-.607 1.103-.826 1.708-.483.605.341.82 1.113.48 1.722-.231.413-.655.644-1.094.644h-.005c-.207 0-.417-.053-.61-.163m26.725-3.148c-.602-.34-.819-1.112-.48-1.723.341-.61 1.107-.821 1.708-.48.605.342.821 1.109.48 1.72-.23.413-.656.646-1.094.646-.208 0-.419-.052-.614-.163m-26.678-.243c-.681-.339-.966-1.173-.626-1.867.34-.69 1.172-.972 1.857-.63.684.341.964 1.178.624 1.868-.242.493-.729.777-1.236.777-.208 0-.419-.048-.619-.148m.981-3.259c-.762-.33-1.118-1.22-.787-1.993.328-.769 1.218-1.123 1.98-.792.761.332 1.113 1.224.783 1.994-.246.574-.799.915-1.38.915-.199 0-.401-.039-.596-.124m24.915-.173c-.47-.299-.611-.927-.312-1.398a.9997.9997 0 011.388-.315c.469.299.612.923.313 1.399-.192.304-.52.471-.854.471a.9952.9952 0 01-.535-.157m-23.002-2.952c-.716-.267-1.084-1.071-.818-1.79.267-.729 1.064-1.091 1.777-.823.719.268 1.086 1.063.819 1.791-.207.561-.735.91-1.298.91-.159 0-.322-.028-.48-.088m21.35-.313c-.376-.267-.463-.789-.198-1.166a.8288.8288 0 011.16-.201c.373.267.462.788.195 1.169-.161.23-.418.352-.678.353a.821.821 0 01-.479-.155m-18.722-2.251c-.662-.207-1.03-.915-.823-1.582.207-.671.908-1.039 1.57-.829.661.206 1.032.913.825 1.58-.167.542-.664.889-1.199.889-.123 0-.249-.019-.373-.058m16.348-.454c-.279-.225-.327-.636-.106-.918a.645.645 0 01.913-.107c.281.224.329.633.108.918a.6466.6466 0 01-.51.248.6544.6544 0 01-.405-.141m-13.156-1.495c-.538-.139-.862-.689-.725-1.231.137-.547.685-.871 1.223-.733.539.139.865.688.727 1.233-.115.458-.526.763-.974.763-.083 0-.167-.011-.251-.032m10.305-.273c-.306-.132-.448-.49-.316-.798.134-.312.489-.452.795-.32.307.133.45.492.318.801a.6067.6067 0 01-.557.367c-.08 0-.162-.016-.24-.05m-6.815-.757c-.449-.091-.741-.534-.651-.985.09-.456.529-.749.978-.658.449.091.743.532.652.988-.08.396-.427.671-.816.671a.8261.8261 0 01-.163-.016m3.58-.118c-.352-.054-.599-.386-.547-.743.052-.359.384-.604.736-.552.356.053.603.383.55.742-.046.326-.325.559-.646.559-.03 0-.061-.001-.093-.006" fill="url(#e)" transform="matrix(1.25 0 0 -1.25 -503.275 83.2237)"/><path d="M421.006 65.801c0-.432.348-.78.774-.78.428 0 .776.348.776.78 0 .433-.348.778-.776.778-.426 0-.774-.345-.774-.778m-3.9.216c-.444-.119-.708-.576-.59-1.024.12-.449.578-.712 1.019-.593.445.12.709.578.591 1.027-.1.375-.435.62-.801.62-.072 0-.146-.01-.219-.03m8.331-.591c-.119-.448.145-.906.588-1.026.444-.12.902.144 1.021.592.118.448-.147.905-.592 1.025a.8077.8077 0 01-.216.029.8285.8285 0 01-.801-.62m-12.494-.9c-.576-.123-.944-.688-.821-1.271.122-.578.687-.947 1.262-.824.576.123.943.692.82 1.272-.106.505-.546.848-1.037.848-.074 0-.149-.008-.224-.025m16.414-.823c-.123-.58.244-1.149.82-1.272.574-.123 1.14.246 1.261.824.125.583-.244 1.148-.819 1.27a1.023 1.023 0 01-.226.025c-.491 0-.93-.342-1.036-.847M409.395 62c-.703-.112-1.183-.772-1.071-1.485.111-.708.771-1.193 1.474-1.081.704.112 1.184.779 1.073 1.488-.101.642-.648 1.094-1.271 1.094-.068 0-.136-.005-.205-.016m23.296-1.079c-.11-.709.369-1.376 1.072-1.488.702-.112 1.365.373 1.475 1.081.113.713-.37 1.373-1.07 1.485-.068.011-.137.016-.204.016-.623 0-1.171-.451-1.273-1.094m2.411-3.63c-.092-.888.552-1.685 1.431-1.779.884-.094 1.674.554 1.767 1.442.094.893-.547 1.685-1.429 1.779-.058.006-.114.009-.171.009-.81 0-1.51-.616-1.598-1.451m-28.412 1.442c-.885-.094-1.523-.886-1.43-1.779.092-.888.881-1.536 1.766-1.441.882.093 1.524.89 1.431 1.778-.087.835-.785 1.451-1.595 1.451-.057 0-.114-.003-.172-.009m29.969-5.701c-.051-.985.7-1.826 1.674-1.878.979-.05 1.815.706 1.866 1.691.051.99-.703 1.824-1.678 1.875-.032.002-.064.003-.096.003-.934 0-1.716-.734-1.766-1.691m-31.622 1.688c-.973-.051-1.728-.885-1.676-1.875.051-.985.888-1.741 1.865-1.691.977.052 1.728.893 1.677 1.878-.05.957-.831 1.691-1.77 1.691-.032 0-.064-.001-.096-.003m32.046-6.274c0-1.074.862-1.945 1.926-1.945 1.067 0 1.931.871 1.931 1.943 0 1.079-.864 1.942-1.928 1.942-1.067 0-1.929-.863-1.929-1.94m-34.463-.002c0-1.072.868-1.943 1.931-1.943 1.061 0 1.925.871 1.925 1.945 0 1.077-.864 1.94-1.925 1.94-1.063 0-1.931-.863-1.931-1.942m35.713-2.71c-.974-.052-1.725-.892-1.674-1.876.052-.991.886-1.739 1.862-1.689.975.052 1.728.885 1.677 1.876-.049.951-.834 1.691-1.771 1.691-.031 0-.062-.001-.094-.002m-34.971-1.689c-.051-.991.702-1.824 1.676-1.876.98-.051 1.813.698 1.866 1.689.05.984-.701 1.824-1.677 1.876-.032.001-.063.002-.094.002-.936 0-1.722-.74-1.771-1.691m33.171-2.669c-.88-.093-1.523-.89-1.431-1.78.094-.893.888-1.533 1.768-1.44.883.094 1.524.885 1.43 1.779-.087.831-.785 1.45-1.597 1.45-.055 0-.112-.003-.17-.009m-31.273-1.441c-.093-.894.546-1.685 1.43-1.779.882-.093 1.674.547 1.767 1.44.093.89-.549 1.687-1.431 1.78-.058.006-.115.009-.172.009-.812 0-1.508-.619-1.594-1.45m28.504-2.481c-.704-.113-1.185-.778-1.073-1.486.112-.712.773-1.191 1.476-1.079.701.112 1.183.773 1.071 1.485-.101.64-.651 1.096-1.273 1.096-.066 0-.134-.006-.201-.016m-25.439-1.08c-.113-.712.368-1.374 1.07-1.485.703-.112 1.364.367 1.477 1.079.11.707-.37 1.373-1.074 1.485-.069.01-.136.016-.203.016-.622 0-1.171-.456-1.27-1.095m21.852-1.916c-.576-.123-.944-.694-.821-1.271.123-.583.687-.951 1.263-.827.575.122.943.69.819 1.273-.106.502-.549.849-1.041.849a.9691.9691 0 01-.22-.024m-18.054-.826c-.124-.582.244-1.15.819-1.273s1.14.245 1.262.828c.123.577-.244 1.148-.82 1.271a.9691.9691 0 01-.22.024c-.492 0-.935-.347-1.041-.85m13.901-1.144c-.442-.12-.706-.578-.589-1.027.12-.447.577-.71 1.019-.59.446.119.709.576.591 1.025a.8346.8346 0 01-.805.621.8077.8077 0 01-.216-.029m-9.508-.594c-.118-.447.147-.904.59-1.023.445-.12.901.143 1.02.591.118.448-.146.906-.591 1.026a.8291.8291 0 01-.214.029c-.366 0-.705-.247-.805-.623m4.49-.807c0-.414.32-.75.722-.777h.105c.403.027.723.363.723.778 0 .43-.348.779-.776.779-.426 0-.774-.349-.774-.78" fill="url(#f)" transform="matrix(1.25 0 0 -1.25 -503.275 83.2237)"/></svg>